<svg width="392" height="306" viewBox="0 0 392 306" fill="none" xmlns="http://www.w3.org/2000/svg">
<ellipse cx="18.6584" cy="191.255" rx="14.0133" ry="12.4563" transform="rotate(-35.9923 18.6584 191.255)" fill="#D9D9D9" fill-opacity="0.3"/>
<ellipse cx="88.6078" cy="287.559" rx="14.0133" ry="12.4563" transform="rotate(-35.9923 88.6078 287.559)" fill="#D9D9D9" fill-opacity="0.3"/>
<ellipse cx="154.716" cy="92.4314" rx="14.0133" ry="12.4563" transform="rotate(-35.9923 154.716 92.4314)" fill="#D9D9D9" fill-opacity="0.3"/>
<ellipse cx="224.665" cy="188.736" rx="14.0133" ry="12.4563" transform="rotate(-35.9923 224.665 188.736)" fill="#D9D9D9" fill-opacity="0.3"/>
<ellipse cx="41.9749" cy="223.357" rx="14.0133" ry="12.4563" transform="rotate(-35.9923 41.9749 223.357)" fill="#D9D9D9" fill-opacity="0.3"/>
<ellipse cx="111.924" cy="319.661" rx="14.0133" ry="12.4563" transform="rotate(-35.9923 111.924 319.661)" fill="#D9D9D9" fill-opacity="0.3"/>
<ellipse cx="178.033" cy="124.533" rx="14.0133" ry="12.4563" transform="rotate(-35.9923 178.033 124.533)" fill="#D9D9D9" fill-opacity="0.3"/>
<ellipse cx="247.982" cy="220.837" rx="14.0133" ry="12.4563" transform="rotate(-35.9923 247.982 220.837)" fill="#D9D9D9" fill-opacity="0.3"/>
<ellipse cx="65.2913" cy="255.458" rx="14.0133" ry="12.4563" transform="rotate(-35.9923 65.2913 255.458)" fill="#D9D9D9" fill-opacity="0.3"/>
<ellipse cx="201.349" cy="156.634" rx="14.0133" ry="12.4563" transform="rotate(-35.9923 201.349 156.634)" fill="#D9D9D9" fill-opacity="0.3"/>
<ellipse cx="271.298" cy="252.939" rx="14.0133" ry="12.4563" transform="rotate(-35.9923 271.298 252.939)" fill="#D9D9D9" fill-opacity="0.3"/>
<ellipse cx="52.6728" cy="166.549" rx="14.0133" ry="12.4563" transform="rotate(-35.9923 52.6728 166.549)" fill="#D9D9D9" fill-opacity="0.3"/>
<ellipse cx="122.622" cy="262.853" rx="14.0133" ry="12.4563" transform="rotate(-35.9923 122.622 262.853)" fill="#D9D9D9" fill-opacity="0.3"/>
<ellipse cx="188.731" cy="67.7255" rx="14.0133" ry="12.4563" transform="rotate(-35.9923 188.731 67.7255)" fill="#D9D9D9" fill-opacity="0.3"/>
<ellipse cx="258.68" cy="164.03" rx="14.0133" ry="12.4563" transform="rotate(-35.9923 258.68 164.03)" fill="#D9D9D9" fill-opacity="0.3"/>
<ellipse cx="75.9892" cy="198.651" rx="14.0133" ry="12.4563" transform="rotate(-35.9923 75.9892 198.651)" fill="#D9D9D9" fill-opacity="0.3"/>
<ellipse cx="145.939" cy="294.955" rx="14.0133" ry="12.4563" transform="rotate(-35.9923 145.939 294.955)" fill="#D9D9D9" fill-opacity="0.3"/>
<ellipse cx="212.047" cy="99.8269" rx="14.0133" ry="12.4563" transform="rotate(-35.9923 212.047 99.8269)" fill="#D9D9D9" fill-opacity="0.3"/>
<ellipse cx="281.996" cy="196.131" rx="14.0133" ry="12.4563" transform="rotate(-35.9923 281.996 196.131)" fill="#D9D9D9" fill-opacity="0.3"/>
<ellipse cx="99.3057" cy="230.752" rx="14.0133" ry="12.4563" transform="rotate(-35.9923 99.3057 230.752)" fill="#D9D9D9" fill-opacity="0.3"/>
<ellipse cx="235.363" cy="131.928" rx="14.0133" ry="12.4563" transform="rotate(-35.9923 235.363 131.928)" fill="#D9D9D9" fill-opacity="0.3"/>
<ellipse cx="305.313" cy="228.233" rx="14.0133" ry="12.4563" transform="rotate(-35.9923 305.313 228.233)" fill="#D9D9D9" fill-opacity="0.3"/>
<ellipse cx="86.6873" cy="141.843" rx="14.0133" ry="12.4563" transform="rotate(-35.9923 86.6873 141.843)" fill="#D9D9D9" fill-opacity="0.3"/>
<ellipse cx="156.637" cy="238.148" rx="14.0133" ry="12.4563" transform="rotate(-35.9923 156.637 238.148)" fill="#D9D9D9" fill-opacity="0.3"/>
<ellipse cx="222.745" cy="43.0196" rx="14.0133" ry="12.4563" transform="rotate(-35.9923 222.745 43.0196)" fill="#D9D9D9" fill-opacity="0.3"/>
<ellipse cx="292.694" cy="139.324" rx="14.0133" ry="12.4563" transform="rotate(-35.9923 292.694 139.324)" fill="#D9D9D9" fill-opacity="0.3"/>
<ellipse cx="110.004" cy="173.945" rx="14.0133" ry="12.4563" transform="rotate(-35.9923 110.004 173.945)" fill="#D9D9D9" fill-opacity="0.3"/>
<ellipse cx="179.953" cy="270.249" rx="14.0133" ry="12.4563" transform="rotate(-35.9923 179.953 270.249)" fill="#D9D9D9" fill-opacity="0.3"/>
<ellipse cx="246.061" cy="75.121" rx="14.0133" ry="12.4563" transform="rotate(-35.9923 246.061 75.121)" fill="#D9D9D9" fill-opacity="0.3"/>
<ellipse cx="316.011" cy="171.425" rx="14.0133" ry="12.4563" transform="rotate(-35.9923 316.011 171.425)" fill="#D9D9D9" fill-opacity="0.3"/>
<ellipse cx="133.32" cy="206.046" rx="14.0133" ry="12.4563" transform="rotate(-35.9923 133.32 206.046)" fill="#D9D9D9" fill-opacity="0.3"/>
<ellipse cx="203.269" cy="302.35" rx="14.0133" ry="12.4563" transform="rotate(-35.9923 203.269 302.35)" fill="#D9D9D9" fill-opacity="0.3"/>
<ellipse cx="269.378" cy="107.222" rx="14.0133" ry="12.4563" transform="rotate(-35.9923 269.378 107.222)" fill="#D9D9D9" fill-opacity="0.3"/>
<ellipse cx="339.327" cy="203.527" rx="14.0133" ry="12.4563" transform="rotate(-35.9923 339.327 203.527)" fill="#D9D9D9" fill-opacity="0.3"/>
<ellipse cx="120.702" cy="117.137" rx="14.0133" ry="12.4563" transform="rotate(-35.9923 120.702 117.137)" fill="#D9D9D9" fill-opacity="0.3"/>
<ellipse cx="190.651" cy="213.442" rx="14.0133" ry="12.4563" transform="rotate(-35.9923 190.651 213.442)" fill="#D9D9D9" fill-opacity="0.3"/>
<ellipse cx="256.759" cy="18.3137" rx="14.0133" ry="12.4563" transform="rotate(-35.9923 256.759 18.3137)" fill="#D9D9D9" fill-opacity="0.3"/>
<ellipse cx="326.709" cy="114.618" rx="14.0133" ry="12.4563" transform="rotate(-35.9923 326.709 114.618)" fill="#D9D9D9" fill-opacity="0.3"/>
<ellipse cx="144.018" cy="149.239" rx="14.0133" ry="12.4563" transform="rotate(-35.9923 144.018 149.239)" fill="#D9D9D9" fill-opacity="0.3"/>
<ellipse cx="213.967" cy="245.543" rx="14.0133" ry="12.4563" transform="rotate(-35.9923 213.967 245.543)" fill="#D9D9D9" fill-opacity="0.3"/>
<ellipse cx="280.076" cy="50.4151" rx="14.0133" ry="12.4563" transform="rotate(-35.9923 280.076 50.4151)" fill="#D9D9D9" fill-opacity="0.3"/>
<ellipse cx="350.025" cy="146.719" rx="14.0133" ry="12.4563" transform="rotate(-35.9923 350.025 146.719)" fill="#D9D9D9" fill-opacity="0.3"/>
<ellipse cx="167.335" cy="181.34" rx="14.0133" ry="12.4563" transform="rotate(-35.9923 167.335 181.34)" fill="#D9D9D9" fill-opacity="0.3"/>
<ellipse cx="237.284" cy="277.644" rx="14.0133" ry="12.4563" transform="rotate(-35.9923 237.284 277.644)" fill="#D9D9D9" fill-opacity="0.3"/>
<ellipse cx="303.392" cy="82.5165" rx="14.0133" ry="12.4563" transform="rotate(-35.9923 303.392 82.5165)" fill="#D9D9D9" fill-opacity="0.3"/>
<ellipse cx="373.342" cy="178.821" rx="14.0133" ry="12.4563" transform="rotate(-35.9923 373.342 178.821)" fill="#D9D9D9" fill-opacity="0.3"/>
</svg>
