<svg id="visual" viewBox="0 0 2000 2000" width="2000" height="2000" xmlns="http://www.w3.org/2000/svg" xmlns:xlink="http://www.w3.org/1999/xlink" version="1.1"><rect x="0" y="0" width="2000" height="2000" fill="#ffffff"></rect><path d="M145 2000L323.2 1916.7C501.3 1833.3 857.7 1666.7 987.2 1500C1116.7 1333.3 1019.3 1166.7 1108.3 1000C1197.3 833.3 1472.7 666.7 1520.2 500C1567.7 333.3 1387.3 166.7 1297.2 83.3L1207 0L2000 0L2000 83.3C2000 166.7 2000 333.3 2000 500C2000 666.7 2000 833.3 2000 1000C2000 1166.7 2000 1333.3 2000 1500C2000 1666.7 2000 1833.3 2000 1916.7L2000 2000Z" fill="#0F0F0F" stroke-linecap="round" stroke-linejoin="miter"></path></svg>